<svg xmlns="http://www.w3.org/2000/svg" xmlns:xlink="http://www.w3.org/1999/xlink" width="500" zoomAndPan="magnify" viewBox="0 0 375 374.999991" height="500" preserveAspectRatio="xMidYMid meet" version="1.0"><defs><filter x="0%" y="0%" width="100%" height="100%" id="id1"><feColorMatrix values="0 0 0 0 1 0 0 0 0 1 0 0 0 0 1 0 0 0 1 0" color-interpolation-filters="sRGB"/></filter><g/><clipPath id="id2"><path d="M 128.371094 65.097656 L 365.371094 65.097656 L 365.371094 302.097656 L 128.371094 302.097656 Z M 128.371094 65.097656 " clip-rule="nonzero"/></clipPath><clipPath id="id3"><path d="M 208.550781 145.277344 L 285.050781 145.277344 L 285.050781 221.777344 L 208.550781 221.777344 Z M 208.550781 145.277344 " clip-rule="nonzero"/></clipPath><clipPath id="id4"><path d="M 9.914062 65.097656 L 246.914062 65.097656 L 246.914062 302.097656 L 9.914062 302.097656 Z M 9.914062 65.097656 " clip-rule="nonzero"/></clipPath><mask id="id5"><g filter="url(#id1)"><rect x="-37.5" width="450" fill="#000000" y="-37.499999" height="449.999989" fill-opacity="0.149"/></g></mask><clipPath id="id6"><rect x="0" width="368" y="0" height="16"/></clipPath><clipPath id="id7"><path d="M 15.34375 221.824219 L 241.09375 221.824219 L 241.09375 273.574219 L 15.34375 273.574219 Z M 15.34375 221.824219 " clip-rule="nonzero"/></clipPath></defs><g clip-path="url(#id2)"><path fill="#212121" d="M 246.871094 65.097656 C 181.425781 65.097656 128.371094 118.148438 128.371094 183.597656 C 128.371094 249.042969 181.425781 302.097656 246.871094 302.097656 C 312.316406 302.097656 365.371094 249.042969 365.371094 183.597656 C 365.371094 118.148438 312.316406 65.097656 246.871094 65.097656 " fill-opacity="1" fill-rule="nonzero"/></g><g clip-path="url(#id3)"><path fill="#ffffff" d="M 246.800781 145.277344 C 225.675781 145.277344 208.550781 162.402344 208.550781 183.527344 C 208.550781 204.652344 225.675781 221.777344 246.800781 221.777344 C 267.925781 221.777344 285.050781 204.652344 285.050781 183.527344 C 285.050781 162.402344 267.925781 145.277344 246.800781 145.277344 " fill-opacity="1" fill-rule="nonzero"/></g><g clip-path="url(#id4)"><path stroke-linecap="butt" transform="matrix(0.750297, 0, 0, 0.750297, 9.915495, 65.095937)" fill-opacity="1" fill="#ffffff" fill-rule="nonzero" stroke-linejoin="miter" d="M -0.00190878 0.00229099 L 315.873086 0.00229099 L 315.873086 315.877286 L -0.00190878 315.877286 L -0.00190878 0.00229099 " stroke="#000000" stroke-width="4" stroke-opacity="1" stroke-miterlimit="4"/></g><g fill="#000000" fill-opacity="1"><g transform="translate(36.083462, 215.845927)"><g><path d="M 64.46875 -70.96875 L 64.46875 -78.90625 C 60.132812 -80.8125 55.628906 -81.765625 50.953125 -81.765625 C 46.015625 -81.765625 41.398438 -80.8125 37.109375 -78.90625 C 32.816406 -77 29.046875 -74.375 25.796875 -71.03125 C 22.546875 -67.695312 19.988281 -63.820312 18.125 -59.40625 C 16.269531 -54.988281 15.34375 -50.304688 15.34375 -45.359375 C 15.34375 -40.421875 16.269531 -35.742188 18.125 -31.328125 C 19.988281 -26.910156 22.546875 -23.078125 25.796875 -19.828125 C 29.046875 -16.578125 32.816406 -14 37.109375 -12.09375 C 41.398438 -10.1875 46.015625 -9.234375 50.953125 -9.234375 C 57.367188 -9.234375 63.304688 -10.832031 68.765625 -14.03125 L 74.609375 -5.453125 C 71.140625 -3.460938 67.429688 -1.878906 63.484375 -0.703125 C 59.546875 0.460938 55.367188 1.046875 50.953125 1.046875 C 44.535156 1.046875 38.507812 -0.164062 32.875 -2.59375 C 27.25 -5.019531 22.332031 -8.332031 18.125 -12.53125 C 13.925781 -16.738281 10.613281 -21.660156 8.1875 -27.296875 C 5.757812 -32.929688 4.546875 -38.953125 4.546875 -45.359375 C 4.546875 -51.773438 5.757812 -57.820312 8.1875 -63.5 C 10.613281 -69.175781 13.925781 -74.113281 18.125 -78.3125 C 22.332031 -82.519531 27.25 -85.859375 32.875 -88.328125 C 38.507812 -90.796875 44.535156 -92.03125 50.953125 -92.03125 C 55.367188 -92.03125 59.546875 -91.46875 63.484375 -90.34375 C 67.429688 -89.21875 71.179688 -87.613281 74.734375 -85.53125 L 74.734375 -70.96875 Z M 64.46875 -70.96875 "/></g></g></g><g fill="#000000" fill-opacity="1"><g transform="translate(115.366797, 215.845927)"><g><path d="M 4.546875 -90.984375 L 36 -90.984375 L 36 -80.71875 L 26.640625 -80.71875 C 30.710938 -71.269531 34.71875 -61.820312 38.65625 -52.375 C 42.601562 -42.9375 46.613281 -33.492188 50.6875 -24.046875 L 51.859375 -19.75 L 53.03125 -24.046875 C 57.101562 -33.492188 61.109375 -42.914062 65.046875 -52.3125 C 68.992188 -61.71875 72.960938 -71.1875 76.953125 -80.71875 L 69.28125 -80.71875 L 69.28125 -90.984375 L 100.734375 -90.984375 L 100.734375 -80.71875 L 87.875 -80.71875 C 81.894531 -66.414062 75.890625 -52.265625 69.859375 -38.265625 C 63.835938 -24.273438 57.835938 -10.132812 51.859375 4.15625 C 45.878906 -10.132812 39.878906 -24.273438 33.859375 -38.265625 C 27.835938 -52.265625 21.835938 -66.414062 15.859375 -80.71875 L 4.546875 -80.71875 Z M 4.546875 -90.984375 "/></g></g></g><g mask="url(#id5)"><g transform="matrix(1, 0, 0, 1, 2, 298)"><g clip-path="url(#id6)"><path stroke-linecap="butt" transform="matrix(7.498764, 0, 0, 7.845467, 7.717882, 7.929726)" fill="none" stroke-linejoin="miter" d="M 0.000115782 -0.0000048959 L 47.408453 -0.0000048959 " stroke="#000000" stroke-width="1" stroke-opacity="1" stroke-miterlimit="4"/></g></g></g><g clip-path="url(#id7)"><path fill="#ffffff" d="M 15.347656 221.824219 L 241.09375 221.824219 L 241.09375 273.574219 L 15.347656 273.574219 L 15.347656 221.824219 " fill-opacity="1" fill-rule="nonzero"/></g><g fill="#212121" fill-opacity="1"><g transform="translate(23.395681, 259.325755)"><g><path d="M 16.53125 -15.171875 C 16.53125 -13.003906 15.785156 -11.335938 14.296875 -10.171875 C 12.816406 -9.003906 10.703125 -8.421875 7.953125 -8.421875 L 5.4375 -8.421875 L 5.4375 0 L 2.9375 0 L 2.9375 -21.421875 L 8.5 -21.421875 C 13.851562 -21.421875 16.53125 -19.335938 16.53125 -15.171875 Z M 5.4375 -10.5625 L 7.671875 -10.5625 C 9.878906 -10.5625 11.476562 -10.914062 12.46875 -11.625 C 13.457031 -12.34375 13.953125 -13.488281 13.953125 -15.0625 C 13.953125 -16.476562 13.484375 -17.53125 12.546875 -18.21875 C 11.617188 -18.914062 10.175781 -19.265625 8.21875 -19.265625 L 5.4375 -19.265625 Z M 5.4375 -10.5625 "/></g></g></g><g fill="#212121" fill-opacity="1"><g transform="translate(41.450154, 259.325755)"><g><path d="M 5.4375 -8.90625 L 5.4375 0 L 2.9375 0 L 2.9375 -21.421875 L 8.8125 -21.421875 C 11.445312 -21.421875 13.390625 -20.914062 14.640625 -19.90625 C 15.898438 -18.90625 16.53125 -17.390625 16.53125 -15.359375 C 16.53125 -12.535156 15.09375 -10.625 12.21875 -9.625 L 18.03125 0 L 15.09375 0 L 9.90625 -8.90625 Z M 5.4375 -11.046875 L 8.84375 -11.046875 C 10.601562 -11.046875 11.894531 -11.394531 12.71875 -12.09375 C 13.539062 -12.789062 13.953125 -13.835938 13.953125 -15.234375 C 13.953125 -16.648438 13.53125 -17.671875 12.6875 -18.296875 C 11.851562 -18.921875 10.515625 -19.234375 8.671875 -19.234375 L 5.4375 -19.234375 Z M 5.4375 -11.046875 "/></g></g></g><g fill="#212121" fill-opacity="1"><g transform="translate(59.98783, 259.325755)"><g><path d="M 21.53125 -10.734375 C 21.53125 -7.304688 20.660156 -4.609375 18.921875 -2.640625 C 17.191406 -0.679688 14.785156 0.296875 11.703125 0.296875 C 8.546875 0.296875 6.109375 -0.664062 4.390625 -2.59375 C 2.679688 -4.53125 1.828125 -7.253906 1.828125 -10.765625 C 1.828125 -14.253906 2.6875 -16.957031 4.40625 -18.875 C 6.125 -20.789062 8.566406 -21.75 11.734375 -21.75 C 14.804688 -21.75 17.207031 -20.769531 18.9375 -18.8125 C 20.664062 -16.863281 21.53125 -14.171875 21.53125 -10.734375 Z M 4.46875 -10.734375 C 4.46875 -7.835938 5.082031 -5.640625 6.3125 -4.140625 C 7.550781 -2.640625 9.347656 -1.890625 11.703125 -1.890625 C 14.078125 -1.890625 15.867188 -2.632812 17.078125 -4.125 C 18.285156 -5.625 18.890625 -7.828125 18.890625 -10.734375 C 18.890625 -13.617188 18.285156 -15.804688 17.078125 -17.296875 C 15.878906 -18.785156 14.097656 -19.53125 11.734375 -19.53125 C 9.359375 -19.53125 7.550781 -18.78125 6.3125 -17.28125 C 5.082031 -15.78125 4.46875 -13.597656 4.46875 -10.734375 Z M 4.46875 -10.734375 "/></g></g></g><g fill="#212121" fill-opacity="1"><g transform="translate(83.342965, 259.325755)"><g><path d="M 20.046875 -10.90625 C 20.046875 -7.375 19.082031 -4.671875 17.15625 -2.796875 C 15.238281 -0.929688 12.476562 0 8.875 0 L 2.9375 0 L 2.9375 -21.421875 L 9.5 -21.421875 C 12.832031 -21.421875 15.421875 -20.492188 17.265625 -18.640625 C 19.117188 -16.796875 20.046875 -14.21875 20.046875 -10.90625 Z M 17.40625 -10.828125 C 17.40625 -13.617188 16.703125 -15.722656 15.296875 -17.140625 C 13.898438 -18.554688 11.816406 -19.265625 9.046875 -19.265625 L 5.4375 -19.265625 L 5.4375 -2.15625 L 8.46875 -2.15625 C 11.4375 -2.15625 13.664062 -2.882812 15.15625 -4.34375 C 16.65625 -5.800781 17.40625 -7.960938 17.40625 -10.828125 Z M 17.40625 -10.828125 "/></g></g></g><g fill="#212121" fill-opacity="1"><g transform="translate(105.204544, 259.325755)"><g><path d="M 19.109375 -21.421875 L 19.109375 -7.5625 C 19.109375 -5.113281 18.367188 -3.191406 16.890625 -1.796875 C 15.421875 -0.398438 13.398438 0.296875 10.828125 0.296875 C 8.242188 0.296875 6.242188 -0.40625 4.828125 -1.8125 C 3.421875 -3.21875 2.71875 -5.15625 2.71875 -7.625 L 2.71875 -21.421875 L 5.21875 -21.421875 L 5.21875 -7.4375 C 5.21875 -5.65625 5.703125 -4.285156 6.671875 -3.328125 C 7.648438 -2.367188 9.085938 -1.890625 10.984375 -1.890625 C 12.796875 -1.890625 14.1875 -2.367188 15.15625 -3.328125 C 16.132812 -4.296875 16.625 -5.675781 16.625 -7.46875 L 16.625 -21.421875 Z M 19.109375 -21.421875 "/></g></g></g><g fill="#212121" fill-opacity="1"><g transform="translate(127.036837, 259.325755)"><g><path d="M 12.109375 -19.5 C 9.753906 -19.5 7.894531 -18.710938 6.53125 -17.140625 C 5.175781 -15.578125 4.5 -13.429688 4.5 -10.703125 C 4.5 -7.898438 5.15625 -5.734375 6.46875 -4.203125 C 7.78125 -2.679688 9.648438 -1.921875 12.078125 -1.921875 C 13.578125 -1.921875 15.285156 -2.1875 17.203125 -2.71875 L 17.203125 -0.546875 C 15.710938 0.015625 13.878906 0.296875 11.703125 0.296875 C 8.546875 0.296875 6.109375 -0.660156 4.390625 -2.578125 C 2.679688 -4.492188 1.828125 -7.210938 1.828125 -10.734375 C 1.828125 -12.941406 2.238281 -14.875 3.0625 -16.53125 C 3.894531 -18.195312 5.085938 -19.476562 6.640625 -20.375 C 8.203125 -21.269531 10.035156 -21.71875 12.140625 -21.71875 C 14.390625 -21.71875 16.351562 -21.3125 18.03125 -20.5 L 16.984375 -18.359375 C 15.359375 -19.117188 13.734375 -19.5 12.109375 -19.5 Z M 12.109375 -19.5 "/></g></g></g><g fill="#212121" fill-opacity="1"><g transform="translate(145.955224, 259.325755)"><g><path d="M 9.53125 0 L 7.046875 0 L 7.046875 -19.203125 L 0.265625 -19.203125 L 0.265625 -21.421875 L 16.3125 -21.421875 L 16.3125 -19.203125 L 9.53125 -19.203125 Z M 9.53125 0 "/></g></g></g><g fill="#212121" fill-opacity="1"><g transform="translate(162.545425, 259.325755)"><g><path d="M 2.9375 0 L 2.9375 -21.421875 L 5.4375 -21.421875 L 5.4375 0 Z M 2.9375 0 "/></g></g></g><g fill="#212121" fill-opacity="1"><g transform="translate(170.906421, 259.325755)"><g><path d="M 21.53125 -10.734375 C 21.53125 -7.304688 20.660156 -4.609375 18.921875 -2.640625 C 17.191406 -0.679688 14.785156 0.296875 11.703125 0.296875 C 8.546875 0.296875 6.109375 -0.664062 4.390625 -2.59375 C 2.679688 -4.53125 1.828125 -7.253906 1.828125 -10.765625 C 1.828125 -14.253906 2.6875 -16.957031 4.40625 -18.875 C 6.125 -20.789062 8.566406 -21.75 11.734375 -21.75 C 14.804688 -21.75 17.207031 -20.769531 18.9375 -18.8125 C 20.664062 -16.863281 21.53125 -14.171875 21.53125 -10.734375 Z M 4.46875 -10.734375 C 4.46875 -7.835938 5.082031 -5.640625 6.3125 -4.140625 C 7.550781 -2.640625 9.347656 -1.890625 11.703125 -1.890625 C 14.078125 -1.890625 15.867188 -2.632812 17.078125 -4.125 C 18.285156 -5.625 18.890625 -7.828125 18.890625 -10.734375 C 18.890625 -13.617188 18.285156 -15.804688 17.078125 -17.296875 C 15.878906 -18.785156 14.097656 -19.53125 11.734375 -19.53125 C 9.359375 -19.53125 7.550781 -18.78125 6.3125 -17.28125 C 5.082031 -15.78125 4.46875 -13.597656 4.46875 -10.734375 Z M 4.46875 -10.734375 "/></g></g></g><g fill="#212121" fill-opacity="1"><g transform="translate(194.261556, 259.325755)"><g><path d="M 19.671875 0 L 16.828125 0 L 5.125 -17.96875 L 5.015625 -17.96875 C 5.171875 -15.863281 5.25 -13.929688 5.25 -12.171875 L 5.25 0 L 2.9375 0 L 2.9375 -21.421875 L 5.75 -21.421875 L 17.4375 -3.515625 L 17.546875 -3.515625 C 17.523438 -3.773438 17.476562 -4.617188 17.40625 -6.046875 C 17.34375 -7.484375 17.320312 -8.507812 17.34375 -9.125 L 17.34375 -21.421875 L 19.671875 -21.421875 Z M 19.671875 0 "/></g></g></g><g fill="#212121" fill-opacity="1"><g transform="translate(216.869896, 259.325755)"><g><path d="M 15.03125 -5.703125 C 15.03125 -3.816406 14.34375 -2.34375 12.96875 -1.28125 C 11.601562 -0.226562 9.75 0.296875 7.40625 0.296875 C 4.875 0.296875 2.921875 -0.03125 1.546875 -0.6875 L 1.546875 -3.09375 C 2.429688 -2.71875 3.390625 -2.421875 4.421875 -2.203125 C 5.460938 -1.992188 6.488281 -1.890625 7.5 -1.890625 C 9.15625 -1.890625 10.40625 -2.203125 11.25 -2.828125 C 12.09375 -3.460938 12.515625 -4.34375 12.515625 -5.46875 C 12.515625 -6.207031 12.363281 -6.8125 12.0625 -7.28125 C 11.757812 -7.757812 11.257812 -8.195312 10.5625 -8.59375 C 9.863281 -9 8.804688 -9.457031 7.390625 -9.96875 C 5.390625 -10.675781 3.960938 -11.515625 3.109375 -12.484375 C 2.253906 -13.460938 1.828125 -14.738281 1.828125 -16.3125 C 1.828125 -17.96875 2.445312 -19.28125 3.6875 -20.25 C 4.925781 -21.226562 6.566406 -21.71875 8.609375 -21.71875 C 10.742188 -21.71875 12.703125 -21.328125 14.484375 -20.546875 L 13.71875 -18.390625 C 11.945312 -19.128906 10.226562 -19.5 8.5625 -19.5 C 7.238281 -19.5 6.203125 -19.210938 5.453125 -18.640625 C 4.710938 -18.078125 4.34375 -17.296875 4.34375 -16.296875 C 4.34375 -15.546875 4.476562 -14.929688 4.75 -14.453125 C 5.03125 -13.984375 5.492188 -13.550781 6.140625 -13.15625 C 6.796875 -12.757812 7.789062 -12.320312 9.125 -11.84375 C 11.375 -11.050781 12.921875 -10.191406 13.765625 -9.265625 C 14.609375 -8.347656 15.03125 -7.160156 15.03125 -5.703125 Z M 15.03125 -5.703125 "/></g></g></g></svg>